# xmcd
#
# Track frame offsets:
#	150
#	12025
#	25213
#	38827
#	56239
#	69032
#	80673
#	94051
#	106678
#	123435
#
# Disc length: 1797
#
# Revision: 1
# Processed by: cddbd v1.5.1PL0 Copyright (c) Steve Scherf et al.
# Submitted via: CDex 1.51
# Normalized: r0:DSETVAR1,TDELIM( - )
#
DISCID=7307030a
DTITLE=Various Artist - Christian Country Classics
DYEAR=1996
DGENRE=Country
TTITLE0=The Martins - Out of His Great Love
TTITLE1=Jeff and Sheri Easter - I Need You
TTITLE2=Barbara Fairchild - Comfort Creek
TTITLE3=Ivan Parker - Your Love Makes Me Sing
TTITLE4=Heirloom - Cryin' Holy Unto The Lord
TTITLE5=The Porchlight Trio - Going Home
TTITLE6=Jeff and Sheri Easter - Let the Little Things Go
TTITLE7=The Martins - Now I'll Follow
TTITLE8=The Nelsons - That's Enough
TTITLE9=Brian Free and Assurance - There is a Love
EXTD=YEAR: 1996
EXTT0=
EXTT1=
EXTT2=
EXTT3=
EXTT4=
EXTT5=
EXTT6=
EXTT7=
EXTT8=
EXTT9=
PLAYORDER=
